<svg width="24" height="24" viewBox="0 0 24 24" fill="none" xmlns="http://www.w3.org/2000/svg">
<g id="phone-call">
<path id="Vector" d="M13.9381 6C14.9148 6.19057 15.8124 6.66826 16.5161 7.37194C17.2198 8.07561 17.6975 8.97326 17.8881 9.95M13.9381 2C15.9673 2.22544 17.8596 3.13417 19.3043 4.57701C20.7489 6.01984 21.6601 7.91101 21.8881 9.94M20.8881 17.92V20.92C20.8892 21.1985 20.8321 21.4742 20.7206 21.7293C20.609 21.9845 20.4454 22.2136 20.2401 22.4019C20.0349 22.5901 19.7926 22.7335 19.5288 22.8227C19.265 22.9119 18.9854 22.9451 18.7081 22.92C15.6309 22.5856 12.6751 21.5341 10.0781 19.85C7.66188 18.3147 5.61339 16.2662 4.07806 13.85C2.38803 11.2412 1.3363 8.27099 1.00806 5.18C0.983066 4.90347 1.01593 4.62476 1.10456 4.36162C1.19318 4.09849 1.33563 3.85669 1.52282 3.65162C1.71002 3.44655 1.93786 3.28271 2.19185 3.17052C2.44583 3.05833 2.7204 3.00026 2.99806 3H5.99806C6.48336 2.99522 6.95385 3.16708 7.32182 3.48353C7.68979 3.79999 7.93013 4.23945 7.99806 4.72C8.12468 5.68007 8.35951 6.62273 8.69806 7.53C8.8326 7.88792 8.86172 8.27691 8.78196 8.65088C8.70221 9.02485 8.51692 9.36811 8.24806 9.64L6.97806 10.91C8.40161 13.4135 10.4745 15.4864 12.9781 16.91L14.2481 15.64C14.5199 15.3711 14.8632 15.1858 15.2372 15.1061C15.6111 15.0263 16.0001 15.0555 16.3581 15.19C17.2653 15.5286 18.208 15.7634 19.1681 15.89C19.6538 15.9585 20.0975 16.2032 20.4146 16.5775C20.7317 16.9518 20.9002 17.4296 20.8881 17.92Z" stroke="#494949" stroke-width="2" stroke-linecap="round" stroke-linejoin="round"/>
</g>
</svg>
