<svg width="204" height="44" viewBox="0 0 204 44" fill="none" xmlns="http://www.w3.org/2000/svg">
<rect width="204" height="44" rx="22" fill="#4F4F4F"/>
<path d="M28 35.3333C35.3638 35.3333 41.3334 29.3638 41.3334 22C41.3334 14.6362 35.3638 8.66663 28 8.66663C20.6362 8.66663 14.6667 14.6362 14.6667 22C14.6667 29.3638 20.6362 35.3333 28 35.3333Z" stroke="white" stroke-width="2" stroke-linecap="round" stroke-linejoin="round"/>
<path d="M25.3333 16.6666L33.3333 22L25.3333 27.3333V16.6666Z" stroke="white" stroke-width="2" stroke-linecap="round" stroke-linejoin="round"/>
<rect x="56" y="14" width="2" height="16" fill="white"/>
<rect x="62" y="16" width="2" height="12" fill="white"/>
<rect x="68" y="17" width="2" height="10" fill="white"/>
<rect x="74" y="14" width="2" height="16" fill="white"/>
<rect x="80" y="10" width="2" height="24" fill="white"/>
<rect x="86" y="15" width="2" height="14" fill="white"/>
<rect x="92" y="14" width="2" height="16" fill="white"/>
<rect x="98" y="15" width="2" height="14" fill="white"/>
<rect x="104" y="14" width="2" height="16" fill="white"/>
<rect x="110" y="14" width="2" height="16" fill="white"/>
<rect x="116" y="16" width="2" height="12" fill="white"/>
<rect x="122" y="17" width="2" height="10" fill="white"/>
<rect x="128" y="17" width="2" height="10" fill="white"/>
<rect x="134" y="16" width="2" height="12" fill="white"/>
<rect x="140" y="14" width="2" height="16" fill="white"/>
<rect x="146" y="15" width="2" height="14" fill="white"/>
<rect x="152" y="10" width="2" height="24" fill="white"/>
<rect x="158" y="10" width="2" height="24" fill="white"/>
<rect x="164" y="14" width="2" height="16" fill="white"/>
<rect x="170" y="12" width="2" height="20" fill="white"/>
<rect x="176" y="16" width="2" height="12" fill="white"/>
<rect x="182" y="17" width="2" height="10" fill="white"/>
</svg>
